<svg id="pattern" xmlns="http://www.w3.org/2000/svg" width="711" height="300"><defs><style>.cls-1{fill:none;stroke:#bb9c66;stroke-width:1px;fill-rule:evenodd}</style></defs><path class="cls-1" d="M1175 1838.01l11.99 11.99-11.99 11.99-11.99-11.99zm-351 0l11.993 11.99L824 1861.99 812.007 1850zm351 300l11.99 11.99-11.99 11.99-11.99-11.99zm-351 0l11.993 11.99L824 2161.99 812.007 2150zm351 300l11.99 11.99-11.99 11.99-11.99-11.99zm-351 0l11.993 11.99L824 2461.99 812.007 2450zm351-900l11.99 11.99-11.99 11.99-11.99-11.99zm-351 0l11.993 11.99L824 1561.99 812.007 1550z" transform="translate(-644 -1537.5)"/><path d="M825 1695a5 5 0 11-5 5 5 5 0 015-5zm350 0a5 5 0 11-5 5 5 5 0 015-5zm-350 300a5 5 0 11-5 5 5 5 0 015-5zm350 0a5 5 0 11-5 5 5 5 0 015-5zm-350 300a5 5 0 11-5 5 5 5 0 015-5zm350 0a5 5 0 11-5 5 5 5 0 015-5zm175-450" transform="translate(-644 -1537.5)" fill="#bb9c66" fill-rule="evenodd"/><path class="cls-1" d="M824 1575h1v100h-1v-100zm350 0h1v100h-1v-100zm-350 149h1v100h-1v-100zm350 0h1v100h-1v-100zM824 NaN" transform="translate(-644 -1537.5)"/></svg>