<svg xmlns="http://www.w3.org/2000/svg" width="25" height="25" viewBox="0 0 25 25">
  <defs>
    <style>
      .cls-1 {
        fill: #1c242a;
      }

      .cls-1, .cls-2 {
        fill-rule: evenodd;
      }

      .cls-2 {
        fill: #fff;
      }
    </style>
  </defs>
  <path class="cls-1" d="M12.5,0.007L24.993,12.5,12.5,24.993,0.007,12.5Z"/>
  <path id="eye" class="cls-2" d="M12.5,8c3.59,0,6.5,4,6.5,4s-2.91,4-6.5,4S6,12,6,12,8.91,8,12.5,8Zm0,0.667c2.872,0,5.2,3.333,5.2,3.333s-2.328,3.334-5.2,3.334S7.3,12,7.3,12,9.628,8.667,12.5,8.667Zm0,0.134A3.056,3.056,0,0,1,15.389,12,3.057,3.057,0,0,1,12.5,15.2,3.057,3.057,0,0,1,9.611,12,3.056,3.056,0,0,1,12.5,8.8Z"/>
</svg>
