<svg xmlns="http://www.w3.org/2000/svg" width="16.219" height="15.25"><defs><filter id="a" filterUnits="userSpaceOnUse"><feFlood result="flood" flood-color="#bb9c66"/><feComposite result="composite" operator="in" in2="SourceGraphic"/><feBlend result="blend" in2="SourceGraphic"/></filter></defs><g filter="url(#a)"><path d="M6.098 4.879C7.269 6.051 8.391 8.829 7.219 10s-4.192.293-5.364-.878a3 3 0 014.243-4.243zm4.243 4.243a3 3 0 01-4.243 4.242C4.926 12.193 4.048 9.172 5.219 8s3.95-.05 5.121 1.122z" fill="none" stroke="#fff" stroke-width="2"/><path d="M5.219 10c.781.781.246 2.583-.535 3.364a2 2 0 01-2.828-2.828c.78-.781 2.582-1.316 3.363-.536zm3-1l-2-2 7-7 2 2zm5-7l1-1 2 2-1 1zm-2 2l1-1 2 2-1 1z" fill="#bb9c66" fill-rule="evenodd"/></g></svg>