<svg xmlns="http://www.w3.org/2000/svg" width="17" height="17" viewBox="0 0 17 17">
  <defs>
    <style>
      .cls-1 {
        fill: #bb9c66;
        fill-rule: evenodd;
      }
    </style>
  </defs>
  <path id="hammer" class="cls-1" d="M30.327,133.819l4.854,4.854L32.754,141.1,27.9,136.246Zm6.067,4.854L37,139.28l-3.64,3.64-0.607-.607Zm-15.775,7.281,2.427,2.427-0.607.607-2.427-2.427ZM29.72,132l0.607,0.607-3.64,3.64-0.607-.607Zm-1.213,6.068,2.427,2.426-0.607.607L27.9,138.673Zm-6.067,6.066,2.427,2.428-0.607.606-2.427-2.426Zm6.674-5.46,1.213,1.214-7.281,7.28-1.213-1.213Z" transform="translate(-20 -132)"/>
</svg>
