<svg xmlns="http://www.w3.org/2000/svg" xmlns:xlink="http://www.w3.org/1999/xlink" width="16.219" height="15.25" viewBox="0 0 16.219 15.25">
  <defs>
    <style>
      .cls-1 {
        filter: url(#filter);
      }

      .cls-2 {
        fill: none;
        stroke: #fff;
        stroke-width: 2px;
      }

      .cls-2, .cls-3 {
        fill-rule: evenodd;
      }

      .cls-3 {
        fill: #bb9c66;
      }
    </style>
    <filter id="filter" filterUnits="userSpaceOnUse">
      <feFlood result="flood" flood-color="#bb9c66"/>
      <feComposite result="composite" operator="in" in2="SourceGraphic"/>
      <feBlend result="blend" in2="SourceGraphic"/>
    </filter>
  </defs>
  <g id="key" class="cls-1">
    <path class="cls-2" d="M26.879,89.879C28.05,91.051,29.172,93.829,28,95s-4.192.293-5.364-.878A3,3,0,0,1,26.879,89.879Zm4.243,4.243a3,3,0,0,1-4.243,4.242C25.707,97.193,24.829,94.172,26,93S29.95,92.95,31.121,94.122Z" transform="translate(-20.781 -85)"/>
    <path class="cls-3" d="M26,95c0.781,0.781.246,2.583-.535,3.364a2,2,0,0,1-2.828-2.828C23.417,94.755,25.219,94.22,26,95Zm3-1-2-2,7-7,2,2Zm5-7,1-1,2,2-1,1Zm-2,2,1-1,2,2-1,1Z" transform="translate(-20.781 -85)"/>
  </g>
</svg>
