<svg xmlns="http://www.w3.org/2000/svg" width="85" height="72" viewBox="0 0 85 72">
  <defs>
    <style>
      .cls-1 {
        fill: none;
      }

      .cls-1, .cls-2 {
        stroke: #bb9c66;
        stroke-width: 1px;
        fill-rule: evenodd;
      }

      .cls-2 {
        fill: #bb9c66;
      }
    </style>
  </defs>
  <path class="cls-1" d="M9.236,33.081l-0.517-.515,30.7-30.6,0.517,0.515Zm18.6,17.084L27.3,49.657,9.7,68.01l0.529,0.509Zm48.4-10.272-0.519-.519-30.073,30.1,0.519,0.519ZM57.475,20.7l-0.505-.527L73.783,4.143l0.505,0.526ZM75.72,33.217l0.515-.514L45.648,2.213l-0.515.513ZM57.195,50.239l0.527-.507L75.259,68.017l-0.527.506ZM8.97,40l0.517-.517L39.448,69.475l-0.517.517Zm18.69-19.123,0.5-.524L11.414,4.385l-0.5.524ZM42.6,17.522A18.216,18.216,0,1,1,24.328,35.738,18.245,18.245,0,0,1,42.6,17.522Zm0-20.4A2.189,2.189,0,0,1,44.8-.694,2.189,2.189,0,0,1,42.6,1.491,2.189,2.189,0,0,1,40.41-.694,2.189,2.189,0,0,1,42.6-2.88Zm0,72.865a2.186,2.186,0,1,1-2.193,2.186A2.189,2.189,0,0,1,42.6,69.985ZM79.152,33.552a2.186,2.186,0,1,1-2.193,2.186A2.189,2.189,0,0,1,79.152,33.552Zm-73.1,0a2.186,2.186,0,1,1-2.193,2.186A2.19,2.19,0,0,1,6.054,33.552Z"/>
  <path class="cls-2" d="M5.688-6L11.374-.33,5.688,5.337,0-.33Zm73.1,0L84.472-.33,78.787,5.337,73.1-.33ZM5.915,66.344l5.707,5.827L5.915,78,0.208,72.171Zm73.375,0L85,72.171,79.291,78l-5.707-5.827ZM5.688,138l5.686,5.668-5.686,5.667L0,143.67Zm73.1,0,5.686,5.668-5.686,5.667L73.1,143.67ZM5.915,210.344l5.707,5.827L5.915,222l-5.707-5.827Zm73.375,0L85,216.171,79.291,222l-5.707-5.827ZM5.688,285l5.686,5.668-5.686,5.667L0,290.67Zm73.1,0,5.686,5.668-5.686,5.667L73.1,290.67ZM5.915,357.344l5.707,5.827L5.915,369l-5.707-5.827Zm73.375,0L85,363.171,79.291,369l-5.707-5.827Z"/>
</svg>
