<svg xmlns="http://www.w3.org/2000/svg" width="85" height="72"><path d="M9.236 33.081l-.517-.515 30.7-30.6.517.515zm18.6 17.084l-.536-.508L9.7 68.01l.529.509zm48.4-10.272l-.519-.519-30.073 30.1.519.519zM57.475 20.7l-.505-.527 16.813-16.03.505.526zM75.72 33.217l.515-.514-30.587-30.49-.515.513zM57.195 50.239l.527-.507 17.537 18.285-.527.506zM8.97 40l.517-.517 29.961 29.992-.517.517zm18.69-19.123l.5-.524L11.414 4.385l-.5.524zm14.94-3.355a18.216 18.216 0 11-18.272 18.216A18.245 18.245 0 0142.6 17.522zm0-20.4a2.189 2.189 0 012.2 2.184 2.189 2.189 0 01-2.2 2.185 2.189 2.189 0 01-2.19-2.185A2.189 2.189 0 0142.6-2.88zm0 72.865a2.186 2.186 0 11-2.193 2.186 2.189 2.189 0 012.193-2.188zm36.552-36.435a2.186 2.186 0 11-2.193 2.186 2.189 2.189 0 012.193-2.186zm-73.1 0a2.186 2.186 0 11-2.193 2.186 2.19 2.19 0 012.195-2.186z" stroke="#bb9c66" fill="none"/><path d="M5.688-6l5.686 5.67-5.686 5.667L0-.33zm73.1 0l5.684 5.67-5.685 5.667L73.1-.33zM5.915 66.344l5.707 5.827L5.915 78 .208 72.171zm73.375 0L85 72.171 79.291 78l-5.707-5.827zM5.688 138l5.686 5.668-5.686 5.667L0 143.67zm73.1 0l5.686 5.668-5.686 5.667-5.688-5.665zM5.915 210.344l5.707 5.827L5.915 222l-5.707-5.827zm73.375 0l5.71 5.827L79.291 222l-5.707-5.827zM5.688 285l5.686 5.668-5.686 5.667L0 290.67zm73.1 0l5.686 5.668-5.686 5.667-5.688-5.665zM5.915 357.344l5.707 5.827L5.915 369l-5.707-5.827zm73.375 0l5.71 5.827L79.291 369l-5.707-5.827z" fill="#bb9c66" stroke="#bb9c66" fill-rule="evenodd"/></svg>