<svg width="743" height="525" viewBox="0 0 743 525" fill="none" xmlns="http://www.w3.org/2000/svg">
<g filter="url(#filter0_b)">
<path d="M66.3393 0H673.476L743 71.2541V465.717L673.476 525H594.4H66.3393L0 453.746V71.2541L66.3393 0Z" fill="#3092D9" fill-opacity="0.15"/>
</g>
<path d="M651.415 30.2849L651.124 30H650.716H89.3393H88.918L88.6237 30.3015L27.2844 93.1408L27 93.4322V93.8393V431.161V431.568L27.2844 431.859L88.6237 494.699L88.918 495H89.3393H577.6H650.716H651.072L651.347 494.776L715.631 442.494L716 442.193V441.718V93.8393V93.4184L715.699 93.1242L651.415 30.2849Z" stroke="#087DEA" stroke-width="2"/>
<defs>
<filter id="filter0_b" x="-20" y="-20" width="783" height="565" filterUnits="userSpaceOnUse" color-interpolation-filters="sRGB">
<feFlood flood-opacity="0" result="BackgroundImageFix"/>
<feGaussianBlur in="BackgroundImage" stdDeviation="10"/>
<feComposite in2="SourceAlpha" operator="in" result="effect1_backgroundBlur"/>
<feBlend mode="normal" in="SourceGraphic" in2="effect1_backgroundBlur" result="shape"/>
</filter>
</defs>
</svg>
